<?xml version="1.0" encoding="UTF-8" standalone="no"?>
<!DOCTYPE svg PUBLIC "-//W3C//DTD SVG 1.1//EN" "http://www.w3.org/Graphics/SVG/1.1/DTD/svg11.dtd">
<svg width="100%" height="100%" viewBox="0 0 200 41" version="1.1" xmlns="http://www.w3.org/2000/svg" xmlns:xlink="http://www.w3.org/1999/xlink" xml:space="preserve" xmlns:serif="http://www.serif.com/" style="fill-rule:evenodd;clip-rule:evenodd;stroke-linejoin:round;stroke-miterlimit:2;">
    <g transform="matrix(1,0,0,1,0,-67)">
        <rect x="-0.5" y="-0.5" width="200" height="200" style="fill:rgb(2,1,30);"/>
    </g>
    <g transform="matrix(1,0,0,1,0,-67)">
        <path d="M45.5,77.5L42.5,77.5C34.35,76.507 26.017,76.174 17.5,76.5L14.5,76.5C14.33,75.178 14.663,74.011 15.5,73C25.167,72.333 34.833,72.333 44.5,73C45.38,74.356 45.714,75.856 45.5,77.5Z" style="fill:rgb(32,144,251);"/>
    </g>
    <g transform="matrix(1,0,0,1,0,-67)">
        <path d="M59.5,75.5C62.518,75.335 65.518,75.502 68.5,76C71.118,77.974 70.952,79.807 68,81.5C61.427,78.063 58.76,80.063 60,87.5C60.5,88 61,88.5 61.5,89C64.131,89.107 66.631,89.273 69,89.5C69.865,91.888 69.032,93.388 66.5,94C57.035,94.525 53.202,90.025 55,80.5C56.366,78.638 57.866,76.972 59.5,75.5Z" style="fill:rgb(225,226,229);"/>
    </g>
    <g transform="matrix(1,0,0,1,0,-67)">
        <path d="M138.5,75.5L143.5,75.5C142.982,81.519 143.649,87.352 145.5,93C143.703,96.146 141.536,96.313 139,93.5C138.501,87.509 138.334,81.509 138.5,75.5Z" style="fill:rgb(216,216,221);"/>
    </g>
    <g transform="matrix(1,0,0,1,0,-67)">
        <path d="M17.5,76.5C26.017,76.174 34.35,76.507 42.5,77.5C38.514,78.166 34.347,78.499 30,78.5C25.443,78.492 21.276,77.825 17.5,76.5Z" style="fill:rgb(30,62,142);"/>
    </g>
    <g transform="matrix(1,0,0,1,0,-67)">
        <path d="M172.5,75.5C176.161,75.35 177.161,76.85 175.5,80C171.707,80.487 170.707,78.987 172.5,75.5Z" style="fill:rgb(204,204,210);"/>
    </g>
    <g transform="matrix(1,0,0,1,0,-67)">
        <path d="M114.5,76.5L118.5,76.5L118.5,81.5L122.5,81.5L122.5,85.5L118.5,85.5C118.726,88.882 119.726,91.882 121.5,94.5C119.208,94.756 117.041,94.423 115,93.5C113.876,89.449 112.709,85.449 111.5,81.5L114.5,81.5L114.5,76.5Z" style="fill:rgb(225,226,229);"/>
    </g>
    <g transform="matrix(1,0,0,1,0,-67)">
        <path d="M14.5,76.5L17.5,76.5C21.276,77.825 25.443,78.492 30,78.5C34.347,78.499 38.514,78.166 42.5,77.5L45.5,77.5L45.5,81.5L17.5,81.5C16.791,80.596 15.791,80.263 14.5,80.5L14.5,76.5Z" style="fill:rgb(68,86,215);"/>
    </g>
    <g transform="matrix(1,0,0,1,0,-67)">
        <path d="M72.5,80.5C75.458,81.541 78.458,81.541 81.5,80.5C82.167,84.5 80.5,86.167 76.5,85.5C76.664,88.187 76.497,90.854 76,93.5C74.667,94.833 73.333,94.833 72,93.5C71.232,89.08 71.398,84.747 72.5,80.5Z" style="fill:rgb(214,214,219);"/>
    </g>
    <g transform="matrix(1,0,0,1,0,-67)">
        <path d="M96.5,82.5L96.5,83.5C94.324,89.55 91.491,95.217 88,100.5C86.5,100.333 85.667,99.5 85.5,98C86.167,96.333 86.833,94.667 87.5,93C86.089,89.512 84.423,86.178 82.5,83C82.667,81.5 83.5,80.667 85,80.5C87.393,82.274 89.059,84.607 90,87.5C90.795,85.099 91.962,82.932 93.5,81C94.998,80.415 95.998,80.915 96.5,82.5Z" style="fill:rgb(225,226,229);"/>
    </g>
    <g transform="matrix(1,0,0,1,0,-67)">
        <path d="M98.5,99.5L98.5,82.5C107.725,78.783 111.558,81.783 110,91.5C108.214,94.362 105.881,95.028 103,93.5C102.667,95.5 102.333,97.5 102,99.5C100.708,100.791 99.542,100.791 98.5,99.5Z" style="fill:rgb(231,232,235);"/>
    </g>
    <g transform="matrix(1,0,0,1,0,-67)">
        <path d="M126.5,81.5C134.328,80.493 137.494,83.827 136,91.5C132.049,96.818 128.049,96.818 124,91.5C122.861,87.579 123.695,84.246 126.5,81.5Z" style="fill:rgb(232,233,236);"/>
    </g>
    <g transform="matrix(1,0,0,1,0,-67)">
        <path d="M162.5,77.5L166.5,77.5L166.5,81.5C169.91,81.384 171.244,83.05 170.5,86.5L166.5,86.5L166.5,91.5L169.5,91.5L169.5,95.5C163.431,95.754 160.765,92.754 161.5,86.5C160.522,86.023 159.689,85.357 159,84.5C156.661,90.511 153.828,96.178 150.5,101.5C149.328,101.081 148.328,100.415 147.5,99.5C150.406,94.786 149.906,90.452 146,86.5C145.333,85.167 145.333,83.833 146,82.5C146.718,81.549 147.551,81.383 148.5,82C149.64,83.973 150.973,85.807 152.5,87.5C153.406,85.614 154.406,83.78 155.5,82C157.509,82.594 159.509,82.427 161.5,81.5C162.429,80.311 162.762,78.978 162.5,77.5Z" style="fill:rgb(225,226,229);"/>
    </g>
    <g transform="matrix(1,0,0,1,0,-67)">
        <path d="M14.5,80.5C15.791,80.263 16.791,80.596 17.5,81.5C35.724,83.439 35.724,84.606 17.5,85C26.827,85.5 36.161,85.667 45.5,85.5C45.663,87.857 45.497,90.19 45,92.5C43.301,93.406 41.467,93.739 39.5,93.5C39.33,94.822 39.663,95.989 40.5,97C37.333,97.535 34.666,96.535 32.5,94C26.833,93.667 21.167,93.333 15.5,93C14.536,88.934 14.203,84.768 14.5,80.5Z" style="fill:rgb(129,54,239);"/>
    </g>
    <g transform="matrix(1,0,0,1,0,-67)">
        <path d="M171.5,82.5L176.5,82.5C176.666,86.514 176.499,90.514 176,94.5C174.644,95.38 173.144,95.714 171.5,95.5L171.5,82.5Z" style="fill:rgb(211,212,217);"/>
    </g>
    <g transform="matrix(1,0,0,1,0,-67)">
        <path d="M180.5,82.5C182.857,82.337 185.19,82.503 187.5,83C189.592,83.953 189.925,85.286 188.5,87C187.101,87.595 185.768,87.428 184.5,86.5C182.404,87.62 182.07,89.12 183.5,91C185.95,89.874 187.95,90.541 189.5,93C186.209,96.157 182.709,96.323 179,93.5C176.842,89.461 177.342,85.794 180.5,82.5Z" style="fill:rgb(227,228,231);"/>
    </g>
    <g transform="matrix(1,0,0,1,0,-67)">
        <path d="M17.5,81.5L45.5,81.5L45.5,85.5C36.161,85.667 26.827,85.5 17.5,85C35.724,84.606 35.724,83.439 17.5,81.5Z" style="fill:rgb(79,56,183);"/>
    </g>
    <g transform="matrix(1,0,0,1,0,-67)">
        <path d="M103.5,85.5C105.912,85.694 106.912,87.027 106.5,89.5L102.5,89.5C102.433,88.041 102.766,86.708 103.5,85.5Z" style="fill:rgb(17,19,41);"/>
    </g>
    <g transform="matrix(1,0,0,1,0,-67)">
        <path d="M128.5,85.5C132.161,85.35 133.161,86.85 131.5,90C127.707,90.487 126.707,88.987 128.5,85.5Z" style="fill:rgb(28,29,51);"/>
    </g>
    <g transform="matrix(1,0,0,1,0,-67)">
        <path d="M17.5,87.5C25.86,87.169 34.193,87.502 42.5,88.5C38.333,88.833 34.167,89.167 30,89.5C25.443,89.492 21.276,88.825 17.5,87.5Z" style="fill:rgb(66,32,134);"/>
    </g>
    <g transform="matrix(1,0,0,1,0,-67)">
        <path d="M96.5,83.5L96.5,82.5L98.5,82.5L98.5,99.5C97.833,94.167 97.167,88.833 96.5,83.5Z" style="fill:rgb(102,101,119);"/>
    </g>
    <g transform="matrix(1,0,0,1,0,-67)">
        <path d="M32.5,98.5L25.5,98.5L25.5,101.5L21.5,101.5C22.209,100.596 23.209,100.263 24.5,100.5L24.5,97.5C27.385,97.194 30.052,97.527 32.5,98.5Z" style="fill:rgb(162,163,173);"/>
    </g>
    <g transform="matrix(1,0,0,1,0,-67)">
        <path d="M32.5,98.5C34.467,100.489 36.8,101.989 39.5,103C32.809,103.831 26.142,103.664 19.5,102.5C19.957,101.702 20.624,101.369 21.5,101.5L25.5,101.5L25.5,98.5L32.5,98.5Z" style="fill:rgb(238,239,240);"/>
    </g>
</svg>
